# xmcd
#
# Track frame offsets: 
#        150
#        19184
#        30435
#        43766
#        55961
#        68991
#        85510
#        100984
#        117488
#        128875
#        144757
#        159540
#        173296
#        186963
#
# Disc length: 2764 seconds
#
# Revision: 0
# Processed by: cddbd v1.5.2PL0 Copyright (c) Steve Scherf et al.
# Submitted via: ExactAudioCopyFreeDBPlugin 1.0
#
DISCID=b20aca0e
DTITLE=Winningham, Zach - Zach Winningham
DYEAR=2011
DGENRE=Country
TTITLE0=Steam Roller Blues
TTITLE1=Sitting on the Dock of the Bay
TTITLE2=I'm Gonna Find Another You
TTITLE3=Pretty Woman
TTITLE4=To Make YOu Feel My Love
TTITLE5=King of the Road
TTITLE6=I'm a Constant Sorrow
TTITLE7=Despardo
TTITLE8=Folsom Prison Blues
TTITLE9=Fire and Rain
TTITLE10=California Dreaming
TTITLE11=Lodi
TTITLE12=The Gambler
TTITLE13=Somer Over the Rainbow
EXTD=
EXTT0=
EXTT1=
EXTT2=
EXTT3=
EXTT4=
EXTT5=
EXTT6=
EXTT7=
EXTT8=
EXTT9=
EXTT10=
EXTT11=
EXTT12=
EXTT13=
PLAYORDER=
